<svg xmlns="http://www.w3.org/2000/svg" xmlns:xlink="http://www.w3.org/1999/xlink" width="500" zoomAndPan="magnify" viewBox="0 0 375 374.999991" height="500" preserveAspectRatio="xMidYMid meet" version="1.0"><defs><g/><clipPath id="cbd362bf27"><path d="M 187.5 58.09375 L 294.75 58.09375 L 294.75 272.59375 L 187.5 272.59375 Z M 187.5 58.09375 " clip-rule="nonzero"/></clipPath><clipPath id="3efa787b68"><path d="M 187.5 63 L 290 63 L 290 268 L 187.5 268 Z M 187.5 63 " clip-rule="nonzero"/></clipPath><clipPath id="75c339d63d"><path d="M 187.5 63.183594 C 243.890625 63.183594 289.675781 108.964844 289.675781 165.355469 C 289.675781 221.75 243.890625 267.53125 187.5 267.53125 L 187.5 263.867188 C 241.871094 263.867188 286.011719 219.726562 286.011719 165.355469 C 286.011719 110.988281 241.871094 66.847656 187.5 66.847656 Z M 187.5 63.183594 " clip-rule="evenodd"/></clipPath><linearGradient x1="-0.0000000680786" gradientTransform="matrix(0, 209.436575, -209.436575, 0, 187.5, 63.183108)" y1="0" x2="0.975706" gradientUnits="userSpaceOnUse" y2="0" id="37e100c742"><stop stop-opacity="1" stop-color="rgb(59.599304%, 39.99939%, 15.299988%)" offset="0"/><stop stop-opacity="1" stop-color="rgb(59.770203%, 40.136719%, 15.306091%)" offset="0.015625"/><stop stop-opacity="1" stop-color="rgb(60.112%, 40.411377%, 15.316772%)" offset="0.03125"/><stop stop-opacity="1" stop-color="rgb(60.452271%, 40.684509%, 15.328979%)" offset="0.046875"/><stop stop-opacity="1" stop-color="rgb(60.794067%, 40.959167%, 15.341187%)" offset="0.0625"/><stop stop-opacity="1" stop-color="rgb(61.135864%, 41.233826%, 15.353394%)" offset="0.078125"/><stop stop-opacity="1" stop-color="rgb(61.477661%, 41.508484%, 15.365601%)" offset="0.09375"/><stop stop-opacity="1" stop-color="rgb(61.819458%, 41.783142%, 15.377808%)" offset="0.109375"/><stop stop-opacity="1" stop-color="rgb(62.159729%, 42.0578%, 15.390015%)" offset="0.125"/><stop stop-opacity="1" stop-color="rgb(62.501526%, 42.330933%, 15.402222%)" offset="0.140625"/><stop stop-opacity="1" stop-color="rgb(62.843323%, 42.605591%, 15.414429%)" offset="0.15625"/><stop stop-opacity="1" stop-color="rgb(63.18512%, 42.880249%, 15.426636%)" offset="0.171875"/><stop stop-opacity="1" stop-color="rgb(63.526917%, 43.154907%, 15.438843%)" offset="0.1875"/><stop stop-opacity="1" stop-color="rgb(63.867188%, 43.429565%, 15.45105%)" offset="0.203125"/><stop stop-opacity="1" stop-color="rgb(64.208984%, 43.704224%, 15.463257%)" offset="0.21875"/><stop stop-opacity="1" stop-color="rgb(64.550781%, 43.978882%, 15.475464%)" offset="0.234375"/><stop stop-opacity="1" stop-color="rgb(64.892578%, 44.252014%, 15.487671%)" offset="0.25"/><stop stop-opacity="1" stop-color="rgb(65.234375%, 44.526672%, 15.499878%)" offset="0.265625"/><stop stop-opacity="1" stop-color="rgb(65.574646%, 44.801331%, 15.512085%)" offset="0.28125"/><stop stop-opacity="1" stop-color="rgb(65.916443%, 45.075989%, 15.524292%)" offset="0.296875"/><stop stop-opacity="1" stop-color="rgb(66.25824%, 45.350647%, 15.536499%)" offset="0.3125"/><stop stop-opacity="1" stop-color="rgb(66.600037%, 45.625305%, 15.548706%)" offset="0.328125"/><stop stop-opacity="1" stop-color="rgb(66.941833%, 45.898438%, 15.560913%)" offset="0.34375"/><stop stop-opacity="1" stop-color="rgb(67.282104%, 46.173096%, 15.57312%)" offset="0.359375"/><stop stop-opacity="1" stop-color="rgb(67.623901%, 46.447754%, 15.585327%)" offset="0.375"/><stop stop-opacity="1" stop-color="rgb(67.965698%, 46.722412%, 15.597534%)" offset="0.390625"/><stop stop-opacity="1" stop-color="rgb(68.307495%, 46.99707%, 15.609741%)" offset="0.40625"/><stop stop-opacity="1" stop-color="rgb(68.649292%, 47.271729%, 15.621948%)" offset="0.421875"/><stop stop-opacity="1" stop-color="rgb(68.989563%, 47.544861%, 15.634155%)" offset="0.4375"/><stop stop-opacity="1" stop-color="rgb(69.33136%, 47.819519%, 15.646362%)" offset="0.453125"/><stop stop-opacity="1" stop-color="rgb(69.673157%, 48.094177%, 15.658569%)" offset="0.46875"/><stop stop-opacity="1" stop-color="rgb(70.014954%, 48.368835%, 15.670776%)" offset="0.484375"/><stop stop-opacity="1" stop-color="rgb(70.35675%, 48.643494%, 15.682983%)" offset="0.5"/><stop stop-opacity="1" stop-color="rgb(70.697021%, 48.918152%, 15.69519%)" offset="0.515625"/><stop stop-opacity="1" stop-color="rgb(71.038818%, 49.19281%, 15.707397%)" offset="0.53125"/><stop stop-opacity="1" stop-color="rgb(71.380615%, 49.465942%, 15.719604%)" offset="0.546875"/><stop stop-opacity="1" stop-color="rgb(71.722412%, 49.740601%, 15.731812%)" offset="0.5625"/><stop stop-opacity="1" stop-color="rgb(72.064209%, 50.015259%, 15.744019%)" offset="0.578125"/><stop stop-opacity="1" stop-color="rgb(72.40448%, 50.289917%, 15.756226%)" offset="0.59375"/><stop stop-opacity="1" stop-color="rgb(72.746277%, 50.564575%, 15.768433%)" offset="0.609375"/><stop stop-opacity="1" stop-color="rgb(73.088074%, 50.839233%, 15.78064%)" offset="0.625"/><stop stop-opacity="1" stop-color="rgb(73.429871%, 51.112366%, 15.792847%)" offset="0.640625"/><stop stop-opacity="1" stop-color="rgb(73.771667%, 51.387024%, 15.805054%)" offset="0.65625"/><stop stop-opacity="1" stop-color="rgb(74.113464%, 51.661682%, 15.817261%)" offset="0.671875"/><stop stop-opacity="1" stop-color="rgb(74.453735%, 51.93634%, 15.829468%)" offset="0.6875"/><stop stop-opacity="1" stop-color="rgb(74.795532%, 52.210999%, 15.841675%)" offset="0.703125"/><stop stop-opacity="1" stop-color="rgb(75.137329%, 52.485657%, 15.853882%)" offset="0.71875"/><stop stop-opacity="1" stop-color="rgb(75.479126%, 52.758789%, 15.866089%)" offset="0.734375"/><stop stop-opacity="1" stop-color="rgb(75.820923%, 53.033447%, 15.878296%)" offset="0.75"/><stop stop-opacity="1" stop-color="rgb(76.161194%, 53.308105%, 15.890503%)" offset="0.765625"/><stop stop-opacity="1" stop-color="rgb(76.502991%, 53.582764%, 15.90271%)" offset="0.78125"/><stop stop-opacity="1" stop-color="rgb(76.844788%, 53.857422%, 15.914917%)" offset="0.796875"/><stop stop-opacity="1" stop-color="rgb(77.186584%, 54.13208%, 15.927124%)" offset="0.8125"/><stop stop-opacity="1" stop-color="rgb(77.528381%, 54.406738%, 15.939331%)" offset="0.828125"/><stop stop-opacity="1" stop-color="rgb(77.868652%, 54.679871%, 15.951538%)" offset="0.84375"/><stop stop-opacity="1" stop-color="rgb(78.210449%, 54.954529%, 15.963745%)" offset="0.859375"/><stop stop-opacity="1" stop-color="rgb(78.552246%, 55.229187%, 15.975952%)" offset="0.875"/><stop stop-opacity="1" stop-color="rgb(78.894043%, 55.503845%, 15.988159%)" offset="0.890625"/><stop stop-opacity="1" stop-color="rgb(79.23584%, 55.778503%, 16.000366%)" offset="0.90625"/><stop stop-opacity="1" stop-color="rgb(79.576111%, 56.053162%, 16.012573%)" offset="0.921875"/><stop stop-opacity="1" stop-color="rgb(79.917908%, 56.326294%, 16.02478%)" offset="0.9375"/><stop stop-opacity="1" stop-color="rgb(80.259705%, 56.600952%, 16.036987%)" offset="0.953125"/><stop stop-opacity="1" stop-color="rgb(80.601501%, 56.87561%, 16.049194%)" offset="0.96875"/><stop stop-opacity="1" stop-color="rgb(80.943298%, 57.150269%, 16.061401%)" offset="0.984375"/><stop stop-opacity="1" stop-color="rgb(81.283569%, 57.424927%, 16.073608%)" offset="1"/></linearGradient><clipPath id="2e9d0332f9"><path d="M 187.5 88 L 265 88 L 265 243 L 187.5 243 Z M 187.5 88 " clip-rule="nonzero"/></clipPath><clipPath id="18de1a55cf"><path d="M 187.5 123 L 229 123 L 229 207 L 187.5 207 Z M 187.5 123 " clip-rule="nonzero"/></clipPath><clipPath id="7be5dbb440"><path d="M 80.246094 58.09375 L 187.484375 58.09375 L 187.484375 272.59375 L 80.246094 272.59375 Z M 80.246094 58.09375 " clip-rule="nonzero"/></clipPath><clipPath id="5cb403ddb6"><path d="M 85 63 L 187.484375 63 L 187.484375 268 L 85 268 Z M 85 63 " clip-rule="nonzero"/></clipPath><clipPath id="4cb7f6a4fb"><path d="M 187.496094 63.183594 C 131.105469 63.183594 85.324219 108.964844 85.324219 165.355469 C 85.324219 221.75 131.105469 267.53125 187.496094 267.53125 L 187.496094 263.867188 C 133.125 263.867188 88.984375 219.726562 88.984375 165.355469 C 88.984375 110.988281 133.125 66.847656 187.496094 66.847656 Z M 187.496094 63.183594 " clip-rule="evenodd"/></clipPath><linearGradient x1="-0.0000000680786" gradientTransform="matrix(0, 209.436575, 209.436575, 0, 187.49675, 63.183108)" y1="0" x2="0.975706" gradientUnits="userSpaceOnUse" y2="0" id="4dca7cf3f9"><stop stop-opacity="1" stop-color="rgb(59.599304%, 39.99939%, 15.299988%)" offset="0"/><stop stop-opacity="1" stop-color="rgb(59.770203%, 40.136719%, 15.306091%)" offset="0.015625"/><stop stop-opacity="1" stop-color="rgb(60.112%, 40.411377%, 15.316772%)" offset="0.03125"/><stop stop-opacity="1" stop-color="rgb(60.452271%, 40.684509%, 15.328979%)" offset="0.046875"/><stop stop-opacity="1" stop-color="rgb(60.794067%, 40.959167%, 15.341187%)" offset="0.0625"/><stop stop-opacity="1" stop-color="rgb(61.135864%, 41.233826%, 15.353394%)" offset="0.078125"/><stop stop-opacity="1" stop-color="rgb(61.477661%, 41.508484%, 15.365601%)" offset="0.09375"/><stop stop-opacity="1" stop-color="rgb(61.819458%, 41.783142%, 15.377808%)" offset="0.109375"/><stop stop-opacity="1" stop-color="rgb(62.159729%, 42.0578%, 15.390015%)" offset="0.125"/><stop stop-opacity="1" stop-color="rgb(62.501526%, 42.330933%, 15.402222%)" offset="0.140625"/><stop stop-opacity="1" stop-color="rgb(62.843323%, 42.605591%, 15.414429%)" offset="0.15625"/><stop stop-opacity="1" stop-color="rgb(63.18512%, 42.880249%, 15.426636%)" offset="0.171875"/><stop stop-opacity="1" stop-color="rgb(63.526917%, 43.154907%, 15.438843%)" offset="0.1875"/><stop stop-opacity="1" stop-color="rgb(63.867188%, 43.429565%, 15.45105%)" offset="0.203125"/><stop stop-opacity="1" stop-color="rgb(64.208984%, 43.704224%, 15.463257%)" offset="0.21875"/><stop stop-opacity="1" stop-color="rgb(64.550781%, 43.978882%, 15.475464%)" offset="0.234375"/><stop stop-opacity="1" stop-color="rgb(64.892578%, 44.252014%, 15.487671%)" offset="0.25"/><stop stop-opacity="1" stop-color="rgb(65.234375%, 44.526672%, 15.499878%)" offset="0.265625"/><stop stop-opacity="1" stop-color="rgb(65.574646%, 44.801331%, 15.512085%)" offset="0.28125"/><stop stop-opacity="1" stop-color="rgb(65.916443%, 45.075989%, 15.524292%)" offset="0.296875"/><stop stop-opacity="1" stop-color="rgb(66.25824%, 45.350647%, 15.536499%)" offset="0.3125"/><stop stop-opacity="1" stop-color="rgb(66.600037%, 45.625305%, 15.548706%)" offset="0.328125"/><stop stop-opacity="1" stop-color="rgb(66.941833%, 45.898438%, 15.560913%)" offset="0.34375"/><stop stop-opacity="1" stop-color="rgb(67.282104%, 46.173096%, 15.57312%)" offset="0.359375"/><stop stop-opacity="1" stop-color="rgb(67.623901%, 46.447754%, 15.585327%)" offset="0.375"/><stop stop-opacity="1" stop-color="rgb(67.965698%, 46.722412%, 15.597534%)" offset="0.390625"/><stop stop-opacity="1" stop-color="rgb(68.307495%, 46.99707%, 15.609741%)" offset="0.40625"/><stop stop-opacity="1" stop-color="rgb(68.649292%, 47.271729%, 15.621948%)" offset="0.421875"/><stop stop-opacity="1" stop-color="rgb(68.989563%, 47.544861%, 15.634155%)" offset="0.4375"/><stop stop-opacity="1" stop-color="rgb(69.33136%, 47.819519%, 15.646362%)" offset="0.453125"/><stop stop-opacity="1" stop-color="rgb(69.673157%, 48.094177%, 15.658569%)" offset="0.46875"/><stop stop-opacity="1" stop-color="rgb(70.014954%, 48.368835%, 15.670776%)" offset="0.484375"/><stop stop-opacity="1" stop-color="rgb(70.35675%, 48.643494%, 15.682983%)" offset="0.5"/><stop stop-opacity="1" stop-color="rgb(70.697021%, 48.918152%, 15.69519%)" offset="0.515625"/><stop stop-opacity="1" stop-color="rgb(71.038818%, 49.19281%, 15.707397%)" offset="0.53125"/><stop stop-opacity="1" stop-color="rgb(71.380615%, 49.465942%, 15.719604%)" offset="0.546875"/><stop stop-opacity="1" stop-color="rgb(71.722412%, 49.740601%, 15.731812%)" offset="0.5625"/><stop stop-opacity="1" stop-color="rgb(72.064209%, 50.015259%, 15.744019%)" offset="0.578125"/><stop stop-opacity="1" stop-color="rgb(72.40448%, 50.289917%, 15.756226%)" offset="0.59375"/><stop stop-opacity="1" stop-color="rgb(72.746277%, 50.564575%, 15.768433%)" offset="0.609375"/><stop stop-opacity="1" stop-color="rgb(73.088074%, 50.839233%, 15.78064%)" offset="0.625"/><stop stop-opacity="1" stop-color="rgb(73.429871%, 51.112366%, 15.792847%)" offset="0.640625"/><stop stop-opacity="1" stop-color="rgb(73.771667%, 51.387024%, 15.805054%)" offset="0.65625"/><stop stop-opacity="1" stop-color="rgb(74.113464%, 51.661682%, 15.817261%)" offset="0.671875"/><stop stop-opacity="1" stop-color="rgb(74.453735%, 51.93634%, 15.829468%)" offset="0.6875"/><stop stop-opacity="1" stop-color="rgb(74.795532%, 52.210999%, 15.841675%)" offset="0.703125"/><stop stop-opacity="1" stop-color="rgb(75.137329%, 52.485657%, 15.853882%)" offset="0.71875"/><stop stop-opacity="1" stop-color="rgb(75.479126%, 52.758789%, 15.866089%)" offset="0.734375"/><stop stop-opacity="1" stop-color="rgb(75.820923%, 53.033447%, 15.878296%)" offset="0.75"/><stop stop-opacity="1" stop-color="rgb(76.161194%, 53.308105%, 15.890503%)" offset="0.765625"/><stop stop-opacity="1" stop-color="rgb(76.502991%, 53.582764%, 15.90271%)" offset="0.78125"/><stop stop-opacity="1" stop-color="rgb(76.844788%, 53.857422%, 15.914917%)" offset="0.796875"/><stop stop-opacity="1" stop-color="rgb(77.186584%, 54.13208%, 15.927124%)" offset="0.8125"/><stop stop-opacity="1" stop-color="rgb(77.528381%, 54.406738%, 15.939331%)" offset="0.828125"/><stop stop-opacity="1" stop-color="rgb(77.868652%, 54.679871%, 15.951538%)" offset="0.84375"/><stop stop-opacity="1" stop-color="rgb(78.210449%, 54.954529%, 15.963745%)" offset="0.859375"/><stop stop-opacity="1" stop-color="rgb(78.552246%, 55.229187%, 15.975952%)" offset="0.875"/><stop stop-opacity="1" stop-color="rgb(78.894043%, 55.503845%, 15.988159%)" offset="0.890625"/><stop stop-opacity="1" stop-color="rgb(79.23584%, 55.778503%, 16.000366%)" offset="0.90625"/><stop stop-opacity="1" stop-color="rgb(79.576111%, 56.053162%, 16.012573%)" offset="0.921875"/><stop stop-opacity="1" stop-color="rgb(79.917908%, 56.326294%, 16.02478%)" offset="0.9375"/><stop stop-opacity="1" stop-color="rgb(80.259705%, 56.600952%, 16.036987%)" offset="0.953125"/><stop stop-opacity="1" stop-color="rgb(80.601501%, 56.87561%, 16.049194%)" offset="0.96875"/><stop stop-opacity="1" stop-color="rgb(80.943298%, 57.150269%, 16.061401%)" offset="0.984375"/><stop stop-opacity="1" stop-color="rgb(81.283569%, 57.424927%, 16.073608%)" offset="1"/></linearGradient><clipPath id="bf84e230e9"><path d="M 110 88 L 187.484375 88 L 187.484375 243 L 110 243 Z M 110 88 " clip-rule="nonzero"/></clipPath><clipPath id="0fa3ed3434"><path d="M 146 123 L 187.484375 123 L 187.484375 207 L 146 207 Z M 146 123 " clip-rule="nonzero"/></clipPath><clipPath id="d3938b82c9"><path d="M 106.835938 78.195312 L 268.085938 78.195312 L 268.085938 215 L 106.835938 215 Z M 106.835938 78.195312 " clip-rule="nonzero"/></clipPath></defs><g clip-path="url(#cbd362bf27)"><path fill="#052d5f" d="M 187.5 58.09375 C 246.699219 58.09375 294.761719 106.15625 294.761719 165.359375 C 294.761719 224.558594 246.699219 272.621094 187.5 272.621094 Z M 187.5 58.09375 " fill-opacity="1" fill-rule="evenodd"/></g><g clip-path="url(#3efa787b68)"><g clip-path="url(#75c339d63d)"><path fill="url(#37e100c742)" d="M 289.675781 63.183594 L 187.5 63.183594 L 187.5 267.53125 L 289.675781 267.53125 Z M 289.675781 63.183594 " fill-rule="nonzero"/></g></g><g clip-path="url(#2e9d0332f9)"><path fill="#052d5f" d="M 187.5 88.703125 C 229.808594 88.703125 264.15625 123.050781 264.15625 165.359375 C 264.15625 207.664062 229.808594 242.011719 187.5 242.011719 Z M 187.5 88.703125 " fill-opacity="1" fill-rule="evenodd"/></g><g clip-path="url(#18de1a55cf)"><path fill="#052d5f" d="M 187.5 123.980469 C 210.335938 123.980469 228.878906 142.519531 228.878906 165.359375 C 228.878906 188.195312 210.335938 206.734375 187.5 206.734375 Z M 187.5 123.980469 " fill-opacity="1" fill-rule="evenodd"/></g><g clip-path="url(#7be5dbb440)"><path fill="#052d5f" d="M 187.496094 58.09375 C 128.296875 58.09375 80.234375 106.15625 80.234375 165.359375 C 80.234375 224.558594 128.296875 272.621094 187.496094 272.621094 Z M 187.496094 58.09375 " fill-opacity="1" fill-rule="evenodd"/></g><g clip-path="url(#5cb403ddb6)"><g clip-path="url(#4cb7f6a4fb)"><path fill="url(#4dca7cf3f9)" d="M 85.324219 63.183594 L 187.484375 63.183594 L 187.484375 267.53125 L 85.324219 267.53125 Z M 85.324219 63.183594 " fill-rule="nonzero"/></g></g><g clip-path="url(#bf84e230e9)"><path fill="#052d5f" d="M 187.496094 88.703125 C 145.1875 88.703125 110.839844 123.050781 110.839844 165.359375 C 110.839844 207.664062 145.1875 242.011719 187.496094 242.011719 Z M 187.496094 88.703125 " fill-opacity="1" fill-rule="evenodd"/></g><g clip-path="url(#0fa3ed3434)"><path fill="#052d5f" d="M 187.496094 123.980469 C 164.660156 123.980469 146.117188 142.519531 146.117188 165.359375 C 146.117188 188.195312 164.660156 206.734375 187.496094 206.734375 Z M 187.496094 123.980469 " fill-opacity="1" fill-rule="evenodd"/></g><g clip-path="url(#d3938b82c9)"><path fill="#0071bc" d="M 187.472656 78.230469 C 209.746094 78.230469 229.945312 87.261719 244.535156 101.851562 C 259.125 116.441406 268.160156 136.640625 268.160156 158.914062 C 268.160156 174.128906 263.953125 188.355469 256.632812 200.453125 C 256.476562 200.554688 256.269531 200.609375 256.0625 200.710938 C 251.285156 202.53125 246.507812 204.917969 241.628906 207.617188 C 253.207031 194.6875 260.269531 177.605469 260.269531 158.914062 C 260.269531 138.820312 252.117188 120.597656 238.980469 107.410156 C 225.792969 94.273438 207.617188 86.121094 187.472656 86.121094 C 167.378906 86.121094 149.207031 94.273438 136.019531 107.410156 C 122.832031 120.597656 114.679688 138.820312 114.679688 158.914062 C 114.679688 178.335938 122.3125 196.039062 134.722656 209.074219 L 134.511719 209.226562 C 132.488281 210.734375 130.515625 212.34375 128.644531 214.109375 C 115.09375 199.675781 106.839844 180.253906 106.839844 158.917969 C 106.839844 136.640625 115.875 116.445312 130.464844 101.855469 C 145.054688 87.261719 165.199219 78.230469 187.472656 78.230469 Z M 187.472656 78.230469 " fill-opacity="1" fill-rule="nonzero"/></g><path fill="#0071bc" d="M 217.035156 202.953125 L 217.035156 111.992188 L 199.492188 111.992188 L 199.492188 148.597656 L 208.835938 164.78125 L 199.492188 164.78125 L 199.492188 206.265625 C 202.90625 205.921875 206.058594 205.128906 208.921875 204.410156 C 211.941406 203.652344 214.5625 203 217.035156 202.953125 Z M 217.035156 202.953125 " fill-opacity="1" fill-rule="nonzero"/><path fill="#079fe2" d="M 179.535156 201.433594 L 179.785156 201.589844 C 184.027344 204.214844 188.308594 205.753906 192.789062 206.257812 L 192.789062 164.78125 L 183.445312 164.78125 L 192.789062 148.597656 L 192.789062 123.839844 L 175.246094 123.839844 L 175.246094 174.363281 L 184.589844 190.546875 L 175.246094 190.546875 L 175.246094 199.867188 C 176.613281 200.273438 177.957031 200.75 179.265625 201.316406 Z M 179.535156 201.433594 " fill-opacity="1" fill-rule="nonzero"/><path fill="#1bc1f1" d="M 168.546875 198.546875 L 168.546875 190.546875 L 159.203125 190.546875 L 168.546875 174.363281 L 168.546875 150.359375 L 151.003906 150.359375 L 151.003906 200.554688 C 155.539062 199.105469 160.136719 198.347656 164.648438 198.347656 C 165.964844 198.347656 167.261719 198.414062 168.546875 198.546875 Z M 168.546875 198.546875 " fill-opacity="1" fill-rule="nonzero"/><path fill="#ffffff" d="M 112.394531 257.773438 C 112.394531 223.351562 150.246094 193.132812 177.660156 205.023438 C 199.464844 218.523438 215.667969 201.855469 221.636719 208.707031 C 210.890625 228.128906 190.433594 224.960938 170.960938 219.664062 C 169.507812 224.960938 172.570312 227.972656 178.074219 231.292969 C 206.789062 239.339844 233.683594 213.277344 257.773438 204.296875 C 260.214844 203.050781 263.589844 205.957031 262.34375 207.566406 L 225.324219 240.121094 C 169.40625 285.65625 148.582031 225.738281 112.394531 257.773438 Z M 112.394531 257.773438 " fill-opacity="1" fill-rule="evenodd"/><g fill="#38b6ff" fill-opacity="1"><g transform="translate(115.520226, 300.61471)"><g><path d="M 8.25 0 L 1.734375 0 L 1.734375 -15.546875 L 19.59375 -15.546875 L 19.59375 -11.703125 L 8.25 -11.703125 L 8.25 -9.265625 L 17.84375 -9.265625 L 17.84375 -6.265625 L 8.25 -6.265625 Z M 8.25 0 "/></g></g></g><g fill="#38b6ff" fill-opacity="1"><g transform="translate(135.982358, 300.61471)"><g><path d="M 8.25 0 L 1.734375 0 L 1.734375 -15.546875 L 8.25 -15.546875 Z M 8.25 0 "/></g></g></g><g fill="#38b6ff" fill-opacity="1"><g transform="translate(145.969697, 300.61471)"><g><path d="M 24.796875 0 L 17.046875 0 L 8.25 -10.515625 L 8.25 0 L 1.734375 0 L 1.734375 -15.546875 L 9.484375 -15.546875 L 18.28125 -5.078125 L 18.28125 -15.546875 L 24.796875 -15.546875 Z M 24.796875 0 "/></g></g></g><g fill="#38b6ff" fill-opacity="1"><g transform="translate(172.497891, 300.61471)"><g><path d="M 26.109375 0 L 19.5 0 L 18.03125 -2.546875 L 8.234375 -2.546875 L 6.765625 0 L 0.15625 0 L 10.109375 -15.53125 L 16.15625 -15.53125 Z M 15.84375 -6.390625 L 13.140625 -11.109375 L 10.4375 -6.390625 Z M 15.84375 -6.390625 "/></g></g></g><g fill="#38b6ff" fill-opacity="1"><g transform="translate(198.766111, 300.61471)"><g><path d="M 24.796875 0 L 17.046875 0 L 8.25 -10.515625 L 8.25 0 L 1.734375 0 L 1.734375 -15.546875 L 9.484375 -15.546875 L 18.28125 -5.078125 L 18.28125 -15.546875 L 24.796875 -15.546875 Z M 24.796875 0 "/></g></g></g><g fill="#38b6ff" fill-opacity="1"><g transform="translate(225.294299, 300.61471)"><g><path d="M 11.75 0.328125 C 7.90625 0.328125 5.078125 -0.457031 3.265625 -2.03125 C 1.660156 -3.425781 0.859375 -5.332031 0.859375 -7.75 C 0.859375 -10.175781 1.660156 -12.085938 3.265625 -13.484375 C 5.078125 -15.054688 7.90625 -15.84375 11.75 -15.84375 C 14.007812 -15.84375 15.875 -15.582031 17.34375 -15.0625 C 18.820312 -14.550781 19.96875 -13.847656 20.78125 -12.953125 C 21.59375 -12.054688 22.132812 -11.03125 22.40625 -9.875 L 15.546875 -9.875 C 14.859375 -11.082031 13.59375 -11.6875 11.75 -11.6875 C 10.175781 -11.6875 9.019531 -11.234375 8.28125 -10.328125 C 7.6875 -9.597656 7.390625 -8.738281 7.390625 -7.75 C 7.390625 -6.757812 7.6875 -5.90625 8.28125 -5.1875 C 9.019531 -4.28125 10.175781 -3.828125 11.75 -3.828125 C 13.59375 -3.828125 14.859375 -4.429688 15.546875 -5.640625 L 22.40625 -5.640625 C 22.132812 -4.484375 21.59375 -3.457031 20.78125 -2.5625 C 19.96875 -1.664062 18.820312 -0.957031 17.34375 -0.4375 C 15.875 0.0703125 14.007812 0.328125 11.75 0.328125 Z M 11.75 0.328125 "/></g></g></g><g fill="#38b6ff" fill-opacity="1"><g transform="translate(248.561982, 300.61471)"><g><path d="M 20.453125 0 L 1.734375 0 L 1.734375 -15.546875 L 19.59375 -15.546875 L 19.59375 -11.703125 L 8.25 -11.703125 L 8.25 -9.265625 L 17.84375 -9.265625 L 17.84375 -6.265625 L 8.25 -6.265625 L 8.25 -3.84375 L 20.453125 -3.84375 Z M 20.453125 0 "/></g></g></g><g fill="#38b6ff" fill-opacity="1"><g transform="translate(63.754326, 331.398651)"><g><path d="M 31.28125 0 L 24.765625 0 L 24.765625 -9.90625 L 18.9375 0 L 14.078125 0 L 8.25 -9.90625 L 8.25 0 L 1.734375 0 L 1.734375 -15.546875 L 9.484375 -15.546875 L 16.515625 -4.4375 L 23.53125 -15.546875 L 31.28125 -15.546875 Z M 31.28125 0 "/></g></g></g><g fill="#38b6ff" fill-opacity="1"><g transform="translate(96.771038, 331.398651)"><g><path d="M 26.109375 0 L 19.5 0 L 18.03125 -2.546875 L 8.234375 -2.546875 L 6.765625 0 L 0.15625 0 L 10.109375 -15.53125 L 16.15625 -15.53125 Z M 15.84375 -6.390625 L 13.140625 -11.109375 L 10.4375 -6.390625 Z M 15.84375 -6.390625 "/></g></g></g><g fill="#38b6ff" fill-opacity="1"><g transform="translate(123.039258, 331.398651)"><g><path d="M 24.796875 0 L 17.046875 0 L 8.25 -10.515625 L 8.25 0 L 1.734375 0 L 1.734375 -15.546875 L 9.484375 -15.546875 L 18.28125 -5.078125 L 18.28125 -15.546875 L 24.796875 -15.546875 Z M 24.796875 0 "/></g></g></g><g fill="#38b6ff" fill-opacity="1"><g transform="translate(149.567452, 331.398651)"><g><path d="M 26.109375 0 L 19.5 0 L 18.03125 -2.546875 L 8.234375 -2.546875 L 6.765625 0 L 0.15625 0 L 10.109375 -15.53125 L 16.15625 -15.53125 Z M 15.84375 -6.390625 L 13.140625 -11.109375 L 10.4375 -6.390625 Z M 15.84375 -6.390625 "/></g></g></g><g fill="#38b6ff" fill-opacity="1"><g transform="translate(175.835666, 331.398651)"><g><path d="M 11.75 0.328125 C 7.90625 0.328125 5.078125 -0.457031 3.265625 -2.03125 C 1.660156 -3.4375 0.859375 -5.34375 0.859375 -7.75 C 0.859375 -10.175781 1.660156 -12.085938 3.265625 -13.484375 C 5.078125 -15.066406 7.90625 -15.859375 11.75 -15.859375 C 13.9375 -15.859375 15.753906 -15.613281 17.203125 -15.125 C 18.660156 -14.632812 19.800781 -13.960938 20.625 -13.109375 C 21.457031 -12.265625 22.023438 -11.289062 22.328125 -10.1875 L 15.34375 -10.1875 C 14.613281 -11.1875 13.414062 -11.6875 11.75 -11.6875 C 10.175781 -11.6875 9.019531 -11.234375 8.28125 -10.328125 C 7.6875 -9.597656 7.390625 -8.738281 7.390625 -7.75 C 7.390625 -6.757812 7.6875 -5.90625 8.28125 -5.1875 C 9.019531 -4.28125 10.175781 -3.828125 11.75 -3.828125 C 13.019531 -3.828125 13.972656 -3.9375 14.609375 -4.15625 C 15.253906 -4.382812 15.722656 -4.675781 16.015625 -5.03125 L 13.484375 -5.03125 L 13.484375 -7.75 L 22.328125 -7.75 L 22.328125 0.015625 L 19.625 0.015625 L 19.0625 -1.5 C 17.34375 -0.28125 14.90625 0.328125 11.75 0.328125 Z M 11.75 0.328125 "/></g></g></g><g fill="#38b6ff" fill-opacity="1"><g transform="translate(199.46081, 331.398651)"><g><path d="M 20.453125 0 L 1.734375 0 L 1.734375 -15.546875 L 19.59375 -15.546875 L 19.59375 -11.703125 L 8.25 -11.703125 L 8.25 -9.265625 L 17.84375 -9.265625 L 17.84375 -6.265625 L 8.25 -6.265625 L 8.25 -3.84375 L 20.453125 -3.84375 Z M 20.453125 0 "/></g></g></g><g fill="#38b6ff" fill-opacity="1"><g transform="translate(220.778687, 331.398651)"><g><path d="M 31.28125 0 L 24.765625 0 L 24.765625 -9.90625 L 18.9375 0 L 14.078125 0 L 8.25 -9.90625 L 8.25 0 L 1.734375 0 L 1.734375 -15.546875 L 9.484375 -15.546875 L 16.515625 -4.4375 L 23.53125 -15.546875 L 31.28125 -15.546875 Z M 31.28125 0 "/></g></g></g><g fill="#38b6ff" fill-opacity="1"><g transform="translate(253.795399, 331.398651)"><g><path d="M 20.453125 0 L 1.734375 0 L 1.734375 -15.546875 L 19.59375 -15.546875 L 19.59375 -11.703125 L 8.25 -11.703125 L 8.25 -9.265625 L 17.84375 -9.265625 L 17.84375 -6.265625 L 8.25 -6.265625 L 8.25 -3.84375 L 20.453125 -3.84375 Z M 20.453125 0 "/></g></g></g><g fill="#38b6ff" fill-opacity="1"><g transform="translate(275.113275, 331.398651)"><g><path d="M 24.796875 0 L 17.046875 0 L 8.25 -10.515625 L 8.25 0 L 1.734375 0 L 1.734375 -15.546875 L 9.484375 -15.546875 L 18.28125 -5.078125 L 18.28125 -15.546875 L 24.796875 -15.546875 Z M 24.796875 0 "/></g></g></g><g fill="#38b6ff" fill-opacity="1"><g transform="translate(301.641476, 331.398651)"><g><path d="M 13.265625 0 L 6.734375 0 L 6.734375 -11.703125 L 0.65625 -11.703125 L 0.65625 -15.546875 L 19.34375 -15.546875 L 19.34375 -11.703125 L 13.265625 -11.703125 Z M 13.265625 0 "/></g></g></g></svg>